<?xml version="1.0" encoding="UTF-8"?>
<svg version="1.1" xmlns="http://www.w3.org/2000/svg" width="128" height="128">
<path d="M0 0 C42.24 0 84.48 0 128 0 C128 42.24 128 84.48 128 128 C85.76 128 43.52 128 0 128 C0 85.76 0 43.52 0 0 Z " fill="#F3F1ED" transform="translate(0,0)"/>
<path d="M0 0 C42.24 0 84.48 0 128 0 C128 42.24 128 84.48 128 128 C85.76 128 43.52 128 0 128 C0 85.76 0 43.52 0 0 Z M17 12 C14.29864653 16.05203021 14.09555538 19.24016854 15 24 C16.97445197 27.61579088 19.25152005 31.12576002 23 33 C22.47731534 35.76276177 21.89130413 38.3260876 21 41 C18.70703125 42.359375 18.70703125 42.359375 15.8125 43.75 C9.46354405 47.06464973 4.67240488 51.21712483 2 58 C1.17212171 65.8167113 0.89935751 73.62419688 6 80 C9.07043132 83.11230084 12.36820962 85.57880642 16 88 C14.99107518 90.52457422 13.98049348 93.04843505 12.96484375 95.5703125 C12.45630859 96.83488281 12.45630859 96.83488281 11.9375 98.125 C11.59589844 98.97320312 11.25429687 99.82140625 10.90234375 100.6953125 C9.30367665 104.77848821 8.83777094 107.93051828 8.8125 112.3125 C8.79832031 113.42238281 8.78414062 114.53226562 8.76953125 115.67578125 C9.01364898 119.19686913 9.37727637 123.37727637 12 126 C13.3534059 126.09531163 14.71173984 126.1218872 16.0684967 126.12025452 C17.38316673 126.12231651 17.38316673 126.12231651 18.72439575 126.12442017 C19.69327728 126.12082489 20.66215881 126.11722961 21.66040039 126.11352539 C22.67491776 126.11367142 23.68943512 126.11381744 24.73469543 126.1139679 C28.10570373 126.11326829 31.47665754 126.10547368 34.84765625 126.09765625 C37.17793243 126.09579224 39.508209 126.09436826 41.83848572 126.09336853 C47.98537265 126.08954202 54.13223613 126.0797106 60.27911377 126.06866455 C66.54609866 126.05845329 72.81308732 126.05387152 79.08007812 126.04882812 C91.38672908 126.03808845 103.69336259 126.02101044 116 126 C117.93332528 121.53888808 118.38512567 117.63711468 118.375 112.8125 C118.37411377 112.05799561 118.37322754 111.30349121 118.37231445 110.52612305 C118.24168337 104.34402367 116.94006472 99.46915265 114 94 C113.4165984 92.79169962 112.83325529 91.58337101 112.25 90.375 C111.8375 89.59125 111.425 88.8075 111 88 C111.53109375 87.62488281 112.0621875 87.24976562 112.609375 86.86328125 C119.14690705 82.12714946 123.3459887 77.82933334 126 70 C126.72342386 62.40404947 125.09427603 56.36890424 120.375 50.3125 C116.90615375 46.51245737 112.69776234 44.03882885 108 42 C107.34 42 106.68 42 106 42 C105.01 37.545 105.01 37.545 104 33 C104.94875 32.278125 105.8975 31.55625 106.875 30.8125 C111.04665062 27.29021009 111.83386944 24.49517502 112.4375 19.0625 C112.31977747 14.27209879 110.40754414 12.25265577 107 9 C102.08238009 5.95424831 96.56582236 5.90935213 91 7 C88.50328785 8.77514936 88.50328785 8.77514936 86.375 11.0625 C82.55854639 14.91962629 82.55854639 14.91962629 79.85546875 15.30859375 C78.25268622 15.09288707 76.65690007 14.82115111 75.0703125 14.5078125 C71.00729774 13.8358126 67.04787168 13.8536311 62.9375 13.875 C62.15101074 13.87330811 61.36452148 13.87161621 60.55419922 13.86987305 C56.50673983 13.88563352 52.68417491 14.10838781 48.6875 14.8125 C45 15 45 15 42.1875 12.75 C41.465625 11.8425 40.74375 10.935 40 10 C35.79397156 6.03026529 31.68027381 6.45617261 26.14453125 6.57421875 C21.55499133 7.19565956 19.98690651 8.52873027 17 12 Z " fill="#F3F1ED" transform="translate(0,0)"/>
<path d="M0 0 C4.08685025 1.76415703 6.52643714 4.28965571 9 8 C10.670625 7.7525 10.670625 7.7525 12.375 7.5 C17.23282963 6.96109655 22.05572694 6.88705748 26.9375 6.875 C28.12243042 6.86823242 28.12243042 6.86823242 29.33129883 6.86132812 C33.54694322 6.87184642 37.41398842 7.18070147 41.5625 8 C43.83167018 8.41168011 43.83167018 8.41168011 46 8 C48.39645141 6.11123488 50.43321207 4.00346076 52.57421875 1.83203125 C56.35458695 -1.02302944 59.65713046 -0.85903396 64.2578125 -0.53125 C68.94367911 0.37655322 71.49030179 2.59094834 74.875 5.75 C76.5665906 9.13318119 76.5159562 12.33883135 76 16 C74.27714629 20.71517858 72.08527604 23.12926548 68 26 C68.144375 26.556875 68.28875 27.11375 68.4375 27.6875 C69.02769128 30.11384195 69.523429 32.54906345 70 35 C70.825 35.20625 71.65 35.4125 72.5 35.625 C78.75932229 38.08401947 84.37030182 42.27624517 88 48 C90.7141441 55.19248186 91.13796064 61.08925412 88 68.0625 C85.23346481 73.20714567 81.55767562 76.45849488 77 80 C76.34 80.66 75.68 81.32 75 82 C75.42152344 82.83144531 75.84304687 83.66289063 76.27734375 84.51953125 C76.82519531 85.60621094 77.37304688 86.69289063 77.9375 87.8125 C78.48277344 88.89144531 79.02804688 89.97039062 79.58984375 91.08203125 C81.94566048 95.95680992 82.18300572 100.05377703 82.1875 105.375 C82.19974609 106.13039063 82.21199219 106.88578125 82.22460938 107.6640625 C82.22654297 108.40140625 82.22847656 109.13875 82.23046875 109.8984375 C82.23457764 110.56536621 82.23868652 111.23229492 82.24291992 111.91943359 C81.94109315 114.50452683 80.99494447 116.60566483 80 119 C66.47464 119.04626117 52.9492987 119.08183748 39.42387581 119.10362434 C33.14404641 119.11407887 26.86427099 119.12826845 20.58447266 119.15087891 C14.52853741 119.17254784 8.47265421 119.18455604 2.4166832 119.18975449 C0.10172582 119.19346097 -2.21322858 119.20069836 -4.52816391 119.21146011 C-7.76086419 119.22589595 -10.9933471 119.22798127 -14.22607422 119.22705078 C-15.19136047 119.23424133 -16.15664673 119.24143188 -17.15118408 119.24884033 C-18.02900543 119.246091 -18.90682678 119.24334167 -19.81124878 119.24050903 C-20.57633696 119.24235262 -21.34142513 119.24419621 -22.1296978 119.24609566 C-24 119 -24 119 -26 117 C-28.68442649 107.05896256 -27.40008705 97.18279037 -23 88 C-22.43925781 87.13375 -21.87851562 86.2675 -21.30078125 85.375 C-20.65689453 84.199375 -20.65689453 84.199375 -20 83 C-21.17113621 79.48659138 -22.30366603 79.17488928 -25.3046875 77.3046875 C-29.32296101 74.21228346 -32.40779255 69.77662234 -34 65 C-34.65102569 57.68061112 -35.2209391 50.76112906 -30.62109375 44.67578125 C-26.77135349 40.69617024 -22.64389969 37.76106467 -17.625 35.4375 C-14.82329818 34.20865702 -14.82329818 34.20865702 -13.625 31.5 C-12.87873219 28.94441892 -12.87873219 28.94441892 -13 26 C-14.65788785 24.65576661 -16.32576317 23.32381517 -18 22 C-21.05253029 18.31591172 -21.62876007 14.95579546 -21.49609375 10.2890625 C-20.62408526 6.26546427 -18.04201594 3.64797243 -15 1 C-10.55804377 -1.22097811 -4.82017039 -0.52218513 0 0 Z M-6 3 C-5.36771484 3.74443359 -5.36771484 3.74443359 -4.72265625 4.50390625 C1.52287582 12.24836601 1.52287582 12.24836601 1 18 C-0.55575161 19.97562775 -2.25925455 21.56357453 -4.140625 23.23046875 C-6.89474206 25.85150873 -8.33221903 28.59772682 -10 32 C-10 32.66 -10 33.32 -10 34 C-8.02 34.33 -6.04 34.66 -4 35 C-3.67 35.99 -3.34 36.98 -3 38 C-3.75023438 37.93039063 -4.50046875 37.86078125 -5.2734375 37.7890625 C-13.45642833 37.35620908 -18.64957561 38.75450293 -25 44 C-29.41590822 48.18188543 -30.82202826 52.48798893 -31.1328125 58.51171875 C-30.8258541 64.26267457 -28.56187258 69.37842085 -24.60546875 73.61328125 C-17.257446 79.96011355 -9.5397833 80.93317205 -0.1640625 80.5078125 C5.4648177 80.00592332 10.19471112 77.90600623 15 75 C14 78 14 78 12.328125 79.1328125 C11.29945312 79.62394531 11.29945312 79.62394531 10.25 80.125 C9.23679687 80.62386719 9.23679687 80.62386719 8.203125 81.1328125 C3.7148367 82.89947917 -0.06868535 83.01288699 -4.8762207 82.73022461 C-11.20901836 82.26731707 -11.20901836 82.26731707 -17.05078125 84.23828125 C-18.44114667 86.1107548 -19.21691052 87.80571801 -20 90 C-20.309375 90.65226562 -20.61875 91.30453125 -20.9375 91.9765625 C-23.75003083 98.68143511 -23.49385683 105.84857328 -23 113 C-22.67 113.66 -22.34 114.32 -22 115 C-9.10927745 115.0231211 3.7814402 115.04091389 16.67217922 115.05181217 C22.65719266 115.05704151 28.64219196 115.06414008 34.62719727 115.07543945 C40.39783429 115.08626653 46.16845768 115.09227645 51.93910408 115.09487724 C54.14602943 115.09673182 56.352954 115.10035304 58.55987358 115.10573006 C61.63946041 115.1129381 64.71899014 115.11399104 67.79858398 115.11352539 C68.72071182 115.11712067 69.64283966 115.12071594 70.59291077 115.12442017 C74.61582573 115.52621451 74.61582573 115.52621451 78 114 C79.00619221 102.31379617 77.66091073 92.99136609 71 83 C67.96903405 82.9104148 65.08113444 82.9670783 62.0625 83.125 C54.26515472 83.34595659 47.48102789 82.89524447 41 78 C40.67 77.01 40.34 76.02 40 75 C40.6084375 75.3609375 41.216875 75.721875 41.84375 76.09375 C50.71908387 80.79245617 60.089276 81.86750704 69.84765625 79.23046875 C72.05087738 78.30724921 73.99178199 77.28812202 76 76 C76.9075 75.4225 77.815 74.845 78.75 74.25 C83.05644428 69.94355572 86.275579 65.69991459 86.5 59.4375 C86.14174512 53.81193009 84.37628632 49.59946788 80.6875 45.3125 C79.3571875 44.1678125 79.3571875 44.1678125 78 43 C77.175 42.278125 76.35 41.55625 75.5 40.8125 C70.26522554 38.10163466 64.80950354 37.65507755 59 37 C59 36.34 59 35.68 59 35 C60.98 34.67 62.96 34.34 65 34 C63.45364633 27.127317 58.82740069 22.82740069 54 18 C54.26417448 12.18816138 56.85210608 8.30131491 60.75 4.125 C61.1625 3.75375 61.575 3.3825 62 3 C56.55466487 3.38895251 53.87313039 5.2148953 50 9 C48.62745412 11.14980497 48.62745412 11.14980497 48 13 C44.93907355 12.56272479 42.16735164 12.06207051 39.26171875 10.984375 C28.40686865 7.70842024 17.29114163 10.0527128 7 14 C6.72800781 13.23171875 6.45601562 12.4634375 6.17578125 11.671875 C4.54381904 7.96336287 2.27983851 6.31518013 -1 4 C-3.72113503 3.13457301 -3.72113503 3.13457301 -6 3 Z " fill="#141414" transform="translate(36,7)"/>
<path d="M0 0 C0.66 0.33 1.32 0.66 2 1 C0.88981151 4.10852776 -0.04535296 5.02957802 -2.875 6.875 C-7.03523282 9.70395832 -9.35317601 12.35954041 -10.5703125 17.328125 C-11.61923299 24.60361608 -10.06282592 29.45193942 -6.4375 35.6875 C0.52180351 42.28991615 7.57991661 43.64453547 16.8684082 43.53637695 C22.59718449 43.28662979 26.232195 42.0513952 31 39 C31.99 39 32.98 39 34 39 C33.734375 40.86328125 33.734375 40.86328125 33 43 C31.328125 44.23046875 31.328125 44.23046875 29.25 45.1875 C28.23679687 45.67283203 28.23679687 45.67283203 27.203125 46.16796875 C22.07502665 48.10464419 17.11275099 48.12552794 11.6875 48.0625 C10.94693359 48.05798828 10.20636719 48.05347656 9.44335938 48.04882812 C7.62887101 48.03712175 5.81442466 48.01918898 4 48 C3.20168544 49.37115097 2.4116939 50.74714884 1.625 52.125 C1.18414063 52.89070313 0.74328125 53.65640625 0.2890625 54.4453125 C-4.19313637 63.32821571 -3 67.84636169 -3 79 C46.005 78.505 46.005 78.505 96 78 C96.06417514 62.85547454 96.06417514 62.85547454 91 50 C90.67 49.01 90.34 48.02 90 47 C89.13632813 47.15597656 88.27265625 47.31195313 87.3828125 47.47265625 C76.26121644 49.20639236 68.66943014 47.85392527 59 42 C59 41.01 59 40.02 59 39 C61.97390505 39.43733898 64.05075051 40.02857939 66.69140625 41.515625 C70.49258065 43.2209925 73.7226383 43.49832483 77.8125 43.4375 C78.51737549 43.43065186 79.22225098 43.42380371 79.94848633 43.41674805 C87.25497785 43.19228214 92.09073844 41.3680036 97.6875 36.8125 C100.30460677 33.6295323 102.50254518 30.29535569 104.66796875 26.79296875 C105.10753906 26.20128906 105.54710938 25.60960938 106 25 C106.66 25 107.32 25 108 25 C108 23.02 108 21.04 108 19 C108.33 19 108.66 19 109 19 C109.65880295 26.11507182 108.0307077 31.08380612 104 37 C101.50617655 39.58918955 98.8341204 41.79776958 96 44 C95.01 44.99 95.01 44.99 94 46 C94.63228516 47.24716797 94.63228516 47.24716797 95.27734375 48.51953125 C95.82519531 49.60621094 96.37304688 50.69289062 96.9375 51.8125 C97.48277344 52.89144531 98.02804688 53.97039062 98.58984375 55.08203125 C100.94566048 59.95680992 101.18300572 64.05377703 101.1875 69.375 C101.19974609 70.13039063 101.21199219 70.88578125 101.22460938 71.6640625 C101.22654297 72.40140625 101.22847656 73.13875 101.23046875 73.8984375 C101.23457764 74.56536621 101.23868652 75.23229492 101.24291992 75.91943359 C100.94109315 78.50452683 99.99494447 80.60566483 99 83 C85.47464 83.04626117 71.9492987 83.08183748 58.42387581 83.10362434 C52.14404641 83.11407887 45.86427099 83.12826845 39.58447266 83.15087891 C33.52853741 83.17254784 27.47265421 83.18455604 21.4166832 83.18975449 C19.10172582 83.19346097 16.78677142 83.20069836 14.47183609 83.21146011 C11.23913581 83.22589595 8.0066529 83.22798127 4.77392578 83.22705078 C3.80863953 83.23424133 2.84335327 83.24143188 1.84881592 83.24884033 C0.97099457 83.246091 0.09317322 83.24334167 -0.81124878 83.24050903 C-1.57633696 83.24235262 -2.34142513 83.24419621 -3.1296978 83.24609566 C-5 83 -5 83 -7 81 C-9.68442649 71.05896256 -8.40008705 61.18279037 -4 52 C-3.15888672 50.700625 -3.15888672 50.700625 -2.30078125 49.375 C-1.87152344 48.59125 -1.44226562 47.8075 -1 47 C-2.17113621 43.48659138 -3.30366603 43.17488928 -6.3046875 41.3046875 C-10.32296101 38.21228346 -13.40779255 33.77662234 -15 29 C-15.65090819 21.68193219 -16.21196159 14.77954768 -11.63671875 8.68359375 C-8.22477064 5.17392875 -4.38372699 2.19186349 0 0 Z " fill="#232322" transform="translate(17,43)"/>
<path d="M0 0 C4.08685025 1.76415703 6.52643714 4.28965571 9 8 C10.97747122 8.36297936 10.97747122 8.36297936 13.125 8.1875 C14.40375 8.125625 15.6825 8.06375 17 8 C16.01 8.66 15.02 9.32 14 10 C14.66 10.66 15.32 11.32 16 12 C13.03 12.66 10.06 13.32 7 14 C6.46375 13.0925 5.9275 12.185 5.375 11.25 C3.09936542 7.79561944 0.53604841 6.08948315 -3 4 C-3.33 4.33 -3.66 4.66 -4 5 C-3.566875 5.51949219 -3.13375 6.03898438 -2.6875 6.57421875 C-2.130625 7.27160156 -1.57375 7.96898437 -1 8.6875 C-0.443125 9.37199219 0.11375 10.05648438 0.6875 10.76171875 C2.27493133 13.46885611 2.4909079 14.91075128 2 18 C0.64453125 19.703125 0.64453125 19.703125 -1.1875 21.25 C-5.23625314 24.97781539 -7.58741907 29.09701295 -10 34 C-8.02 34 -6.04 34 -4 34 C-3.67 35.32 -3.34 36.64 -3 38 C-4.22976562 38.09087891 -4.22976562 38.09087891 -5.484375 38.18359375 C-6.56203125 38.26738281 -7.6396875 38.35117187 -8.75 38.4375 C-9.81734375 38.51871094 -10.8846875 38.59992187 -11.984375 38.68359375 C-14.43679962 38.94090773 -16.63921291 39.31812218 -19 40 C-17.25 35.125 -17.25 35.125 -15 34 C-13.6250851 31.09740189 -13 29.23861295 -13 26 C-14.65788785 24.65576661 -16.32576317 23.32381517 -18 22 C-21.05253029 18.31591172 -21.62876007 14.95579546 -21.49609375 10.2890625 C-20.62408526 6.26546427 -18.04201594 3.64797243 -15 1 C-10.55804377 -1.22097811 -4.82017039 -0.52218513 0 0 Z " fill="#151515" transform="translate(36,7)"/>
<path d="M0 0 C0.66 0.33 1.32 0.66 2 1 C0.88981151 4.10852776 -0.04535296 5.02957802 -2.875 6.875 C-7.03523282 9.70395832 -9.35317601 12.35954041 -10.5703125 17.328125 C-11.61923299 24.60361608 -10.06282592 29.45193942 -6.4375 35.6875 C0.52180351 42.28991615 7.57991661 43.64453547 16.8684082 43.53637695 C22.59718449 43.28662979 26.232195 42.0513952 31 39 C31.99 39 32.98 39 34 39 C33.734375 40.86328125 33.734375 40.86328125 33 43 C31.328125 44.23046875 31.328125 44.23046875 29.25 45.1875 C28.23679687 45.67283203 28.23679687 45.67283203 27.203125 46.16796875 C22.07502665 48.10464419 17.11275099 48.12552794 11.6875 48.0625 C10.94693359 48.05798828 10.20636719 48.05347656 9.44335938 48.04882812 C7.62887101 48.03712175 5.81442466 48.01918898 4 48 C3.20168544 49.37115097 2.4116939 50.74714884 1.625 52.125 C1.18414063 52.89070313 0.74328125 53.65640625 0.2890625 54.4453125 C-2.63006641 60.23049525 -3.27440128 65.01969957 -3.125 71.375 C-3.11146484 72.47908203 -3.11146484 72.47908203 -3.09765625 73.60546875 C-3.07430144 75.4037888 -3.03843836 77.20193911 -3 79 C-3.66 78.67 -4.32 78.34 -5 78 C-5.4140625 74.83984375 -5.4140625 74.83984375 -5.625 70.9375 C-5.69976562 69.64714844 -5.77453125 68.35679688 -5.8515625 67.02734375 C-5.90054687 66.02832031 -5.94953125 65.02929688 -6 64 C-6.33 67.96 -6.66 71.92 -7 76 C-7.33 76 -7.66 76 -8 76 C-8.56405375 66.1447275 -7.76348092 57.81392915 -2.30078125 49.375 C-1.87152344 48.59125 -1.44226562 47.8075 -1 47 C-2.17113621 43.48659138 -3.30366603 43.17488928 -6.3046875 41.3046875 C-10.32296101 38.21228346 -13.40779255 33.77662234 -15 29 C-15.65090819 21.68193219 -16.21196159 14.77954768 -11.63671875 8.68359375 C-8.22477064 5.17392875 -4.38372699 2.19186349 0 0 Z " fill="#191918" transform="translate(17,43)"/>
<path d="M0 0 C0.33 0 0.66 0 1 0 C1.65880295 7.11507182 0.0307077 12.08380612 -4 18 C-6.49382345 20.58918955 -9.1658796 22.79776958 -12 25 C-12.66 25.66 -13.32 26.32 -14 27 C-13.57847656 27.83144531 -13.15695313 28.66289063 -12.72265625 29.51953125 C-12.17480469 30.60621094 -11.62695312 31.69289063 -11.0625 32.8125 C-10.51722656 33.89144531 -9.97195312 34.97039062 -9.41015625 36.08203125 C-7.72740109 39.56407587 -6.87356431 42.18405275 -6.90234375 46.01171875 C-6.90556641 46.76904297 -6.90878906 47.52636719 -6.91210938 48.30664062 C-6.92467773 49.48516602 -6.92467773 49.48516602 -6.9375 50.6875 C-6.94201172 51.48478516 -6.94652344 52.28207031 -6.95117188 53.10351562 C-6.9629415 55.06904257 -6.98087652 57.03453085 -7 59 C-7.33 59 -7.66 59 -8 59 C-8.495 56.03 -8.495 56.03 -9 53 C-9.33 54.98 -9.66 56.96 -10 59 C-10.33 59 -10.66 59 -11 59 C-11.01417969 57.98421875 -11.02835938 56.9684375 -11.04296875 55.921875 C-11.31564277 46.59983197 -12.8380186 39.47863103 -17 31 C-17.33 30.01 -17.66 29.02 -18 28 C-18.86367187 28.15597656 -19.72734375 28.31195313 -20.6171875 28.47265625 C-31.73878356 30.20639236 -39.33056986 28.85392527 -49 23 C-49 22.01 -49 21.02 -49 20 C-46.02609495 20.43733898 -43.94924949 21.02857939 -41.30859375 22.515625 C-37.50741935 24.2209925 -34.2773617 24.49832483 -30.1875 24.4375 C-29.48262451 24.43065186 -28.77774902 24.42380371 -28.05151367 24.41674805 C-20.74502215 24.19228214 -15.90926156 22.3680036 -10.3125 17.8125 C-7.69539323 14.6295323 -5.49745482 11.29535569 -3.33203125 7.79296875 C-2.89246094 7.20128906 -2.45289063 6.60960938 -2 6 C-1.34 6 -0.68 6 0 6 C0 4.02 0 2.04 0 0 Z " fill="#1B1A1A" transform="translate(125,62)"/>
<path d="M0 0 C3.96 0 7.92 0 12 0 C12 0.99 12 1.98 12 3 C10.68 3.33 9.36 3.66 8 4 C8.33 5.98 8.66 7.96 9 10 C11.31 10 13.62 10 16 10 C16.99 7.69 17.98 5.38 19 3 C20.32 3 21.64 3 23 3 C22.98839844 3.67546875 22.97679687 4.3509375 22.96484375 5.046875 C22.95582031 5.93890625 22.94679687 6.8309375 22.9375 7.75 C22.92589844 8.63171875 22.91429687 9.5134375 22.90234375 10.421875 C22.99173802 12.7818838 23.33087179 14.74498524 24 17 C22.68 17 21.36 17 20 17 C19.67 16.34 19.34 15.68 19 15 C18.02160156 15.01740234 18.02160156 15.01740234 17.0234375 15.03515625 C12.19739718 15.08498262 7.76478265 14.83383696 3 14 C2.01 14.495 2.01 14.495 1 15 C-0.54613014 14.91348369 -2.08909387 14.75997364 -3.625 14.5625 C-4.44226562 14.46066406 -5.25953125 14.35882813 -6.1015625 14.25390625 C-6.72804688 14.17011719 -7.35453125 14.08632812 -8 14 C-8.33 14.99 -8.66 15.98 -9 17 C-9.99 17 -10.98 17 -12 17 C-11.89171875 15.87851563 -11.89171875 15.87851563 -11.78125 14.734375 C-11.64203125 13.25710937 -11.64203125 13.25710937 -11.5 11.75 C-11.36078125 10.28820312 -11.36078125 10.28820312 -11.21875 8.796875 C-11.04199832 6.53697847 -11 4.26679807 -11 2 C-10.01 2 -9.02 2 -8 2 C-7.01 4.64 -6.02 7.28 -5 10 C-2.69 10 -0.38 10 2 10 C2.33 8.35 2.66 6.7 3 5 C2.01 4.34 1.02 3.68 0 3 C0 2.01 0 1.02 0 0 Z " fill="#1D1D1C" transform="translate(58,56)"/>
<path d="M0 0 C2 2 2 2 2.375 5.75 C2.25540512 10.1271725 0.96979819 12.70914254 -2 16 C-4.75 16.875 -4.75 16.875 -7 17 C-7.12375 15.329375 -7.12375 15.329375 -7.25 13.625 C-7.57873787 9.94246056 -7.57873787 9.94246056 -10.0625 8.5625 C-10.701875 8.376875 -11.34125 8.19125 -12 8 C-9.88514138 1.47918592 -6.93842794 -0.75417695 0 0 Z " fill="#E8E6E2" transform="translate(106,13)"/>
<path d="M0 0 C3.80476278 -0.59185199 5.52395457 -0.29620605 8.8125 1.75 C10.96634616 3.96538462 11.67715014 4.98673462 12 8 C11.360625 8.185625 10.72125 8.37125 10.0625 8.5625 C7.57873787 9.94246056 7.57873787 9.94246056 7.25 13.625 C7.1675 14.73875 7.085 15.8525 7 17 C4.75 16.875 4.75 16.875 2 16 C-0.89542373 12.71330279 -1.92995099 10.68881531 -2.375 6.3125 C-2 3 -2 3 0 0 Z " fill="#E9E7E4" transform="translate(21,13)"/>
<path d="M0 0 C4.04883094 0.62981815 6.78995849 2.73472359 9.8125 5.4375 C10.8025 6.9225 10.8025 6.9225 11.8125 8.4375 C13.78997122 8.80047936 13.78997122 8.80047936 15.9375 8.625 C17.21625 8.563125 18.495 8.50125 19.8125 8.4375 C18.8225 9.0975 17.8325 9.7575 16.8125 10.4375 C17.4725 11.0975 18.1325 11.7575 18.8125 12.4375 C15.8425 13.0975 12.8725 13.7575 9.8125 14.4375 C9.27625 13.53 8.74 12.6225 8.1875 11.6875 C5.93321426 8.31406531 3.4030965 6.38240644 -0.1875 4.4375 C-1.5075 4.4375 -2.8275 4.4375 -4.1875 4.4375 C-4.1875 1.35787145 -2.89165655 0.57833131 0 0 Z " fill="#1C1C1C" transform="translate(33.1875,6.5625)"/>
<path d="M0 0 C2.96361998 0.43582647 5.05118938 1.02857082 7.6875 2.5 C11.46234325 4.20936298 14.80278356 4.54939188 18.875 4.6875 C19.56335938 4.72166016 20.25171875 4.75582031 20.9609375 4.79101562 C22.64008613 4.87264091 24.32001168 4.9380157 26 5 C24.02 5.99 24.02 5.99 22 7 C22.99 7.66 23.98 8.32 25 9 C15.05823537 9.86589563 8.52264433 8.15965495 0 3 C0 2.01 0 1.02 0 0 Z " fill="#2D2C2C" transform="translate(76,82)"/>
<path d="M0 0 C3 0.1875 3 0.1875 6 1 C8 4 8 4 7.6875 7.125 C7 10 7 10 6 11 C3.0625 11.25 3.0625 11.25 0 11 C-2.30163882 7.54754176 -2.34490322 6.05261287 -2 2 C-1.34 1.34 -0.68 0.68 0 0 Z " fill="#141413" transform="translate(78,38)"/>
<path d="M0 0 C0.78181641 -0.00773438 1.56363281 -0.01546875 2.36914062 -0.0234375 C7.34795019 -0.00679987 11.4671678 0.66185085 16.1875 2.25 C16.1875 2.91 16.1875 3.57 16.1875 4.25 C6.2875 4.25 -3.6125 4.25 -13.8125 4.25 C-11.18316809 -1.00866381 -5.08432081 -0.04956283 0 0 Z " fill="#0C0C0C" transform="translate(62.8125,13.75)"/>
<path d="M0 0 C0.99 0.33 1.98 0.66 3 1 C2.98839844 1.67546875 2.97679688 2.3509375 2.96484375 3.046875 C2.95582031 3.93890625 2.94679688 4.8309375 2.9375 5.75 C2.92589844 6.63171875 2.91429688 7.5134375 2.90234375 8.421875 C2.99173802 10.7818838 3.33087179 12.74498524 4 15 C2.68 15 1.36 15 0 15 C-0.33 14.34 -0.66 13.68 -1 13 C-4.3 13 -7.6 13 -11 13 C-11 12.67 -11 12.34 -11 12 C-9.35 12 -7.7 12 -6 12 C-6 11.34 -6 10.68 -6 10 C-6.99 9.67 -7.98 9.34 -9 9 C-8.05125 8.79375 -7.1025 8.5875 -6.125 8.375 C-2.71585849 7.29936517 -2.71585849 7.29936517 -1.6875 3.9375 C-1.460625 2.968125 -1.23375 1.99875 -1 1 C-0.67 0.67 -0.34 0.34 0 0 Z " fill="#272626" transform="translate(78,58)"/>
<path d="M0 0 C2.375 0.75 2.375 0.75 3.375 1.75 C3.5625 5.1875 3.5625 5.1875 3.375 8.75 C1.375 10.75 1.375 10.75 -1.75 10.875 C-3.173125 10.813125 -3.173125 10.813125 -4.625 10.75 C-6.02435013 7.95129973 -5.87765405 5.84501208 -5.625 2.75 C-3.92079816 -0.03053984 -3.27136899 -0.31155895 0 0 Z " fill="#0D0D0D" transform="translate(47.625,38.25)"/>
<path d="M0 0 C0.33 1.32 0.66 2.64 1 4 C0.0925 4.53625 -0.815 5.0725 -1.75 5.625 C-5.20438056 7.90063458 -6.91051685 10.46395159 -9 14 C-12.71888239 13.49287967 -15.73454239 12.88391785 -19 11 C-17.35 11 -15.7 11 -14 11 C-14 10.34 -14 9.68 -14 9 C-12.33779419 7.99260254 -10.66979326 6.99477045 -9 6 C-7.14373556 4.44249057 -5.34169339 2.83910417 -3.55078125 1.20703125 C-2 0 -2 0 0 0 Z " fill="#222121" transform="translate(93,7)"/>
<path d="M0 0 C0.99 0 1.98 0 3 0 C3.15855469 0.55429687 3.31710938 1.10859375 3.48046875 1.6796875 C4.90376787 6.47984297 4.90376787 6.47984297 8.6875 9.5 C9.450625 9.665 10.21375 9.83 11 10 C11 10.66 11 11.32 11 12 C8.36 12 5.72 12 3 12 C2.67 12.99 2.34 13.98 2 15 C1.01 15 0.02 15 -1 15 C-0.9278125 14.25234375 -0.855625 13.5046875 -0.78125 12.734375 C-0.64203125 11.25710937 -0.64203125 11.25710937 -0.5 9.75 C-0.36078125 8.28820312 -0.36078125 8.28820312 -0.21875 6.796875 C-0.04199832 4.53697847 0 2.26679807 0 0 Z " fill="#161615" transform="translate(47,58)"/>
<path d="M0 0 C0.33 0.99 0.66 1.98 1 3 C3.64 3 6.28 3 9 3 C9 3.99 9 4.98 9 6 C7.77023438 6.09087891 7.77023438 6.09087891 6.515625 6.18359375 C4.89914063 6.30927734 4.89914063 6.30927734 3.25 6.4375 C2.18265625 6.51871094 1.1153125 6.59992187 0.015625 6.68359375 C-2.43679962 6.94090773 -4.63921291 7.31812218 -7 8 C-6.1875 6.0625 -6.1875 6.0625 -5 4 C-4.01 3.67 -3.02 3.34 -2 3 C-1.34 2.01 -0.68 1.02 0 0 Z " fill="#0F0F0F" transform="translate(24,39)"/>
<path d="M0 0 C4.12751449 0.60698743 7.3321148 2.03810791 11 4 C10.67 4.99 10.34 5.98 10 7 C10.99 7.33 11.98 7.66 13 8 C7.71862571 7.48474397 4.42778844 5.74522883 0 3 C0 2.01 0 1.02 0 0 Z " fill="#1D1D1D" transform="translate(76,82)"/>
<path d="M0 0 C0.66 0.33 1.32 0.66 2 1 C1.43410156 1.54269531 0.86820313 2.08539063 0.28515625 2.64453125 C-0.44832031 3.35996094 -1.18179687 4.07539062 -1.9375 4.8125 C-2.66839844 5.52019531 -3.39929688 6.22789063 -4.15234375 6.95703125 C-7.23304303 10.36338584 -7.22953747 13.76385493 -7.5625 18.1875 C-7.64628906 19.27417969 -7.73007813 20.36085938 -7.81640625 21.48046875 C-7.87699219 22.31191406 -7.93757812 23.14335938 -8 24 C-10.76963155 19.31210225 -10.24053539 15.16889745 -9 10 C-6.89042259 5.76510206 -4.02027454 2.53128397 0 0 Z " fill="#C8C5C3" transform="translate(15,48)"/>
<path d="M0 0 C3.63 0 7.26 0 11 0 C11 0.99 11 1.98 11 3 C3.375 4.25 3.375 4.25 0 2 C0 1.34 0 0.68 0 0 Z " fill="#2B2B2A" transform="translate(58,73)"/>
<path d="M0 0 C0.53625 0.2475 1.0725 0.495 1.625 0.75 C-4.125 4.75 -4.125 4.75 -6.375 4.75 C-7.73661311 5.71113866 -9.07355198 6.70884159 -10.375 7.75 C-8.77449323 3.26858103 -4.98031651 -0.52424384 0 0 Z " fill="#CFCDCA" transform="translate(96.375,10.25)"/>
<path d="M0 0 C0.66 0.33 1.32 0.66 2 1 C0.85546875 2.48828125 0.85546875 2.48828125 -1 4 C-3.69921875 4.29296875 -3.69921875 4.29296875 -6.6875 4.1875 C-7.68136719 4.16042969 -8.67523437 4.13335937 -9.69921875 4.10546875 C-10.45847656 4.07066406 -11.21773437 4.03585938 -12 4 C-12 3.67 -12 3.34 -12 3 C-10.948125 2.87625 -9.89625 2.7525 -8.8125 2.625 C-5.09963555 2.15746422 -5.09963555 2.15746422 -2.1875 0.875 C-1.465625 0.58625 -0.74375 0.2975 0 0 Z " fill="#232222" transform="translate(38,87)"/>
<path d="M0 0 C0.78375 0.04125 1.5675 0.0825 2.375 0.125 C2.705 1.775 3.035 3.425 3.375 5.125 C0.735 4.795 -1.905 4.465 -4.625 4.125 C-4.625 0.73492581 -3.1763743 0.15125592 0 0 Z " fill="#262625" transform="translate(33.625,6.875)"/>
<path d="M0 0 C0.33 0.99 0.66 1.98 1 3 C-0.32 4.32 -1.64 5.64 -3 7 C-3.99 6.67 -4.98 6.34 -6 6 C-4.02 4.02 -2.04 2.04 0 0 Z " fill="#0C0B0B" transform="translate(120,77)"/>
<path d="M0 0 C-0.99 0.495 -0.99 0.495 -2 1 C-0.35 1.33 1.3 1.66 3 2 C3 2.33 3 2.66 3 3 C0.03 3 -2.94 3 -6 3 C-6 2.01 -6 1.02 -6 0 C-3.50907189 -1.24546405 -2.58919267 -0.7767578 0 0 Z " fill="#D6D3D0" transform="translate(65,70)"/>
</svg>
